<svg width="37" height="24" viewBox="0 0 37 24" fill="none" xmlns="http://www.w3.org/2000/svg">
<path d="M28.4078 18.8464C29.7905 18.8464 30.4413 18.3188 31.0097 16.7196L33.5 9.7349H32.0582L30.3882 15.1387H30.3589L28.689 9.74221H27.2063L29.6087 16.3903L29.48 16.7947C29.3892 17.3735 28.8695 17.7864 28.2846 17.7437C28.173 17.7437 27.9565 17.7321 27.8686 17.7205V18.8184C28.0474 18.8428 28.2279 18.8544 28.4078 18.8537V18.8464ZM23.6029 15.3486C22.8466 15.3486 22.3666 14.9826 22.3666 14.4288C22.3666 13.8549 22.8295 13.5206 23.7145 13.4676L25.2905 13.3682V13.8841C25.2558 14.7344 24.5379 15.3961 23.6877 15.3614C23.659 15.3601 23.631 15.3577 23.6029 15.3553V15.3486ZM23.2223 16.4324C24.0805 16.4556 24.8831 16.0085 25.3143 15.2662H25.3436V16.3641H26.6561V11.8171C26.6561 10.4985 25.6016 9.6489 23.978 9.6489C22.4721 9.6489 21.3584 10.5101 21.3175 11.6939H22.5953C22.7478 11.092 23.3199 10.6949 23.9371 10.762C24.8044 10.762 25.2905 11.1664 25.2905 11.9105V12.4143L23.5218 12.5198C21.875 12.6192 20.9845 13.2931 20.9845 14.4654C20.9833 15.6541 21.9031 16.4391 23.2217 16.4391L23.2223 16.4324ZM15.6161 8.42236H17.2506C18.4814 8.42236 19.1847 9.07863 19.1847 10.2332C19.1847 11.3878 18.4814 12.0495 17.2451 12.0495H15.6161V8.42236ZM14.198 7.22692V16.3622H15.6161V13.248H17.5794C19.1786 13.334 20.5442 12.1075 20.6302 10.5083C20.6351 10.4174 20.6357 10.3271 20.632 10.2362C20.7076 8.65474 19.4872 7.3117 17.9057 7.23546C17.8124 7.23119 17.7197 7.2318 17.6263 7.23607L14.198 7.22692ZM9.49128 8.93164C8.67644 8.88467 7.9793 9.39456 7.59262 9.39456C7.20593 9.39456 6.60821 8.95542 5.96353 8.96762C5.10965 8.98958 4.3314 9.46226 3.91848 10.21C3.0396 11.722 3.68977 13.9604 4.53938 15.1906C4.95534 15.8005 5.45425 16.4684 6.10991 16.4446C6.73081 16.4214 6.97721 16.0402 7.72741 16.0402C8.4776 16.0402 8.70022 16.4446 9.35649 16.4324C10.0359 16.4208 10.4641 15.8225 10.8813 15.2125C11.1753 14.7807 11.404 14.308 11.5607 13.8097C10.7599 13.4596 10.2409 12.671 10.2366 11.797C10.2488 11.0261 10.6526 10.3149 11.3088 9.91055C10.8904 9.31649 10.2189 8.95176 9.4925 8.92615L9.49128 8.93164ZM8.98261 8.12472C8.62581 8.57423 8.07994 8.83222 7.50601 8.82185C7.46941 8.26195 7.65971 7.7112 8.03359 7.29279C8.40563 6.86097 8.93016 6.59017 9.49738 6.53711C9.53764 7.11287 9.35283 7.68131 8.98139 8.12289" fill="#141414"/>
</svg>
