<svg width="24" height="24" viewBox="0 0 24 24" fill="none" xmlns="http://www.w3.org/2000/svg">
<path d="M12.0469 4.07812C12.7617 4.07812 13.4473 4.36209 13.9527 4.86756C14.4582 5.37303 14.7422 6.0586 14.7422 6.77344V7.3125H9.35156V6.77344C9.35156 6.0586 9.63553 5.37303 10.141 4.86756C10.6465 4.36209 11.332 4.07812 12.0469 4.07812ZM15.8203 7.3125V6.77344C15.8203 5.77266 15.4228 4.81287 14.7151 4.10521C14.0074 3.39756 13.0477 3 12.0469 3C11.0461 3 10.0863 3.39756 9.37865 4.10521C8.671 4.81287 8.27344 5.77266 8.27344 6.77344V7.3125H4.5V18.0938C4.5 18.6656 4.72718 19.2141 5.13155 19.6184C5.53593 20.0228 6.08438 20.25 6.65625 20.25H17.4375C18.0094 20.25 18.5578 20.0228 18.9622 19.6184C19.3666 19.2141 19.5938 18.6656 19.5938 18.0938V7.3125H15.8203ZM5.57812 8.39062H8.27344H9.35156H18.5156V18.0938C18.5156 18.3797 18.402 18.6539 18.1998 18.8561C17.9977 19.0583 17.7234 19.1719 17.4375 19.1719H6.65625C6.37031 19.1719 6.09609 19.0583 5.8939 18.8561C5.69171 18.6539 5.57812 18.3797 5.57812 18.0938V8.39062Z" fill="#141414"/>
<path d="M8.92702 7.81216L9.37655 9.48985" stroke="#141414" stroke-width="1.2"/>
<path d="M15.2903 7.8539L14.8467 9.50945" stroke="#141414" stroke-width="1.2"/>
<rect x="12" y="12" width="12" height="12" rx="6" fill="#EDB5F1"/>
<path d="M20.2461 17.4336V18.5176C20.2461 19.1003 20.194 19.5918 20.0898 19.9922C19.9857 20.3926 19.8359 20.7148 19.6406 20.959C19.4453 21.2031 19.2093 21.3805 18.9326 21.4912C18.6592 21.5986 18.3499 21.6523 18.0049 21.6523C17.7314 21.6523 17.4792 21.6182 17.248 21.5498C17.0169 21.4814 16.8086 21.3724 16.623 21.2227C16.4408 21.0697 16.2845 20.8711 16.1543 20.627C16.0241 20.3828 15.9248 20.0866 15.8564 19.7383C15.7881 19.39 15.7539 18.9831 15.7539 18.5176V17.4336C15.7539 16.8509 15.806 16.3626 15.9102 15.9688C16.0176 15.5749 16.1689 15.2591 16.3643 15.0215C16.5596 14.7806 16.7939 14.6081 17.0674 14.5039C17.3441 14.3997 17.6533 14.3477 17.9951 14.3477C18.2718 14.3477 18.5257 14.3818 18.7568 14.4502C18.9912 14.5153 19.1995 14.6211 19.3818 14.7676C19.5641 14.9108 19.7188 15.1029 19.8457 15.3438C19.9759 15.5814 20.0752 15.8727 20.1436 16.2178C20.2119 16.5628 20.2461 16.9681 20.2461 17.4336ZM19.3379 18.6641V17.2822C19.3379 16.9632 19.3184 16.6833 19.2793 16.4424C19.2435 16.1982 19.1898 15.9899 19.1182 15.8174C19.0465 15.6449 18.9554 15.5049 18.8447 15.3975C18.7373 15.29 18.612 15.2119 18.4688 15.1631C18.3288 15.111 18.1709 15.085 17.9951 15.085C17.7803 15.085 17.5898 15.1257 17.4238 15.207C17.2578 15.2852 17.1178 15.4105 17.0039 15.583C16.8932 15.7555 16.8086 15.9818 16.75 16.2617C16.6914 16.5417 16.6621 16.8818 16.6621 17.2822V18.6641C16.6621 18.9831 16.68 19.2646 16.7158 19.5088C16.7549 19.7529 16.8118 19.9645 16.8867 20.1436C16.9616 20.3193 17.0527 20.4642 17.1602 20.5781C17.2676 20.6921 17.3913 20.7767 17.5312 20.832C17.6745 20.8841 17.8324 20.9102 18.0049 20.9102C18.2262 20.9102 18.4199 20.8678 18.5859 20.7832C18.752 20.6986 18.8903 20.5667 19.001 20.3877C19.1149 20.2054 19.1995 19.9727 19.2549 19.6895C19.3102 19.403 19.3379 19.0612 19.3379 18.6641Z" fill="#141414"/>
</svg>
