<svg width="18" height="18" viewBox="0 0 18 18" fill="none" xmlns="http://www.w3.org/2000/svg">
<path d="M1.88889 14.6667C1.63704 14.6667 1.42578 14.5813 1.25511 14.4107C1.08445 14.24 0.99941 14.029 1 13.7778C1 13.5259 1.08534 13.3147 1.256 13.144C1.42667 12.9733 1.63763 12.8883 1.88889 12.8889H16.1111C16.363 12.8889 16.5742 12.9742 16.7449 13.1449C16.9156 13.3156 17.0006 13.5265 17 13.7778C17 14.0296 16.9147 14.2409 16.744 14.4116C16.5733 14.5822 16.3624 14.6673 16.1111 14.6667H1.88889ZM1.88889 10.2222C1.63704 10.2222 1.42578 10.1369 1.25511 9.96622C1.08445 9.79556 0.99941 9.58459 1 9.33333C1 9.08148 1.08534 8.87022 1.256 8.69956C1.42667 8.52889 1.63763 8.44385 1.88889 8.44445H16.1111C16.363 8.44445 16.5742 8.52978 16.7449 8.70045C16.9156 8.87111 17.0006 9.08207 17 9.33333C17 9.58519 16.9147 9.79644 16.744 9.96711C16.5733 10.1378 16.3624 10.2228 16.1111 10.2222H1.88889ZM1.88889 5.77778C1.63704 5.77778 1.42578 5.69245 1.25511 5.52178C1.08445 5.35111 0.99941 5.14015 1 4.88889C1 4.63704 1.08534 4.42578 1.256 4.25511C1.42667 4.08445 1.63763 3.99941 1.88889 4H16.1111C16.363 4 16.5742 4.08534 16.7449 4.256C16.9156 4.42667 17.0006 4.63763 17 4.88889C17 5.14074 16.9147 5.352 16.744 5.52267C16.5733 5.69334 16.3624 5.77837 16.1111 5.77778H1.88889Z" fill="#141414"/>
</svg>
