<svg width="24" height="24" viewBox="0 0 24 24" fill="none" xmlns="http://www.w3.org/2000/svg">
<path d="M17.99 1.59607C16.9812 1.48906 15.9674 1.43698 14.953 1.44007C11.59 1.44007 9.49999 3.58207 9.49999 7.03007V9.37107H6.67499C6.54238 9.37107 6.4152 9.42375 6.32143 9.51752C6.22767 9.61129 6.17499 9.73846 6.17499 9.87107V13.7211C6.17499 13.8537 6.22767 13.9809 6.32143 14.0746C6.4152 14.1684 6.54238 14.2211 6.67499 14.2211H9.49999V21.9411C9.49999 22.0737 9.55267 22.2009 9.64643 22.2946C9.7402 22.3884 9.86738 22.4411 9.99999 22.4411H13.978C14.1106 22.4411 14.2378 22.3884 14.3315 22.2946C14.4253 22.2009 14.478 22.0737 14.478 21.9411V14.2211H17.294C17.4154 14.2211 17.5326 14.177 17.6239 14.097C17.7152 14.0169 17.7742 13.9064 17.79 13.7861L18.287 9.93607C18.2962 9.8655 18.2903 9.79377 18.2696 9.72568C18.2489 9.65758 18.2139 9.59469 18.167 9.54121C18.12 9.48772 18.0622 9.44488 17.9974 9.41554C17.9325 9.3862 17.8622 9.37104 17.791 9.37107H14.478V7.41207C14.478 6.44207 14.673 6.03707 15.886 6.03707H17.925C18.0576 6.03707 18.1848 5.98439 18.2785 5.89062C18.3723 5.79686 18.425 5.66968 18.425 5.53707V2.09207C18.425 1.97068 18.3809 1.85341 18.3009 1.76215C18.2209 1.67088 18.1103 1.61185 17.99 1.59607ZM17.425 5.03607L15.885 5.03707C13.728 5.03707 13.478 6.39307 13.478 7.41207V9.87207C13.478 10.0045 13.5305 10.1315 13.6241 10.2253C13.7176 10.319 13.8446 10.3718 13.977 10.3721H17.223L16.854 13.2221H13.978C13.8454 13.2221 13.7182 13.2747 13.6244 13.3685C13.5307 13.4623 13.478 13.5895 13.478 13.7221V21.4401H10.5V13.7221C10.5 13.5895 10.4473 13.4623 10.3535 13.3685C10.2598 13.2747 10.1326 13.2221 9.99999 13.2221H7.17599V10.3721H9.99999C10.1326 10.3721 10.2598 10.3194 10.3535 10.2256C10.4473 10.1319 10.5 10.0047 10.5 9.87207V7.03007C10.5 4.15607 12.165 2.44007 14.953 2.44007C15.962 2.44007 16.873 2.49507 17.425 2.54307V5.03607Z" fill="#141414"/>
</svg>
