<svg width="37" height="24" viewBox="0 0 37 24" fill="none" xmlns="http://www.w3.org/2000/svg">
<path d="M17.688 12.8062V16.2741H16.5802V7.71005H19.5183C19.869 7.70277 20.2177 7.76454 20.5442 7.89179C20.8708 8.01904 21.1687 8.20925 21.4208 8.45145C21.6755 8.67894 21.8782 8.95793 22.0153 9.26967C22.1523 9.58141 22.2206 9.91869 22.2156 10.2588C22.2229 10.6008 22.1556 10.9402 22.0184 11.254C21.8813 11.5677 21.6774 11.8483 21.4208 12.0764C20.9071 12.563 20.2729 12.806 19.5183 12.8055H17.688V12.8062ZM17.688 8.76441V11.7539H19.5458C19.7495 11.7599 19.9522 11.7236 20.1409 11.6474C20.3297 11.5711 20.5003 11.4566 20.6419 11.3111C20.7828 11.1751 20.8948 11.0124 20.9713 10.8327C21.0477 10.6529 21.0871 10.4598 21.0871 10.2646C21.0871 10.0695 21.0477 9.87634 20.9713 9.69659C20.8948 9.51685 20.7828 9.35415 20.6419 9.21813C20.5021 9.06958 20.332 8.95225 20.1431 8.87391C19.9541 8.79557 19.7505 8.75801 19.5458 8.76372H17.688V8.76441Z" fill="#5F6368"/>
<path d="M24.7683 10.2234C25.5871 10.2234 26.2335 10.4407 26.7073 10.8753C27.1812 11.3099 27.4179 11.9057 27.4174 12.6628V16.2742H26.3578V15.461H26.3096C25.8509 16.1307 25.2408 16.4655 24.4793 16.4655C23.8293 16.4655 23.2855 16.2742 22.8479 15.8915C22.6379 15.7159 22.47 15.4959 22.3564 15.2477C22.2429 14.9994 22.1865 14.7291 22.1915 14.4565C22.1915 13.8502 22.4222 13.368 22.8837 13.01C23.3451 12.6519 23.9612 12.4724 24.7318 12.4715C25.3897 12.4715 25.9314 12.5911 26.3571 12.8302V12.5788C26.3583 12.3929 26.3179 12.2091 26.2388 12.0407C26.1596 11.8723 26.0438 11.7235 25.8995 11.6051C25.6066 11.3426 25.2248 11.1994 24.8302 11.2039C24.2114 11.2039 23.7217 11.4632 23.3612 11.9816L22.3855 11.3714C22.9222 10.606 23.7165 10.2234 24.7683 10.2234ZM23.335 14.4804C23.3343 14.6205 23.3673 14.7586 23.4312 14.8834C23.4951 15.0082 23.5881 15.1161 23.7025 15.1979C23.9475 15.3893 24.2516 15.4907 24.5633 15.4849C25.0307 15.4841 25.4789 15.2994 25.8094 14.9711C26.1764 14.628 26.3598 14.2256 26.3598 13.7637C26.0144 13.4903 25.5328 13.3537 24.9149 13.3537C24.4649 13.3537 24.0896 13.4614 23.7892 13.6769C23.4857 13.8955 23.335 14.1613 23.335 14.4804Z" fill="#5F6368"/>
<path d="M33.5 10.4146L29.8009 18.8569H28.6573L30.03 15.9029L27.5977 10.4146H28.8018L30.5598 14.6238H30.5839L32.2938 10.4146H33.5Z" fill="#5F6368"/>
<path d="M13.2113 12.0587C13.2118 11.7235 13.1832 11.3888 13.126 11.0583H8.45398V12.9532H11.1299C11.0752 13.2558 10.9593 13.5443 10.7892 13.8013C10.6192 14.0582 10.3985 14.2783 10.1405 14.4483V15.6783H11.7375C12.6726 14.8221 13.2113 13.5559 13.2113 12.0587Z" fill="#4285F4"/>
<path d="M8.454 16.8665C9.79093 16.8665 10.9166 16.4305 11.7375 15.6788L10.1405 14.4489C9.69598 14.7482 9.1235 14.919 8.454 14.919C7.16178 14.919 6.06499 14.0539 5.67278 12.8882H4.02759V14.1557C4.43993 14.9706 5.07221 15.6556 5.85384 16.1342C6.63548 16.6129 7.53569 16.8664 8.454 16.8665Z" fill="#34A853"/>
<path d="M5.67273 12.8881C5.46538 12.2772 5.46538 11.6157 5.67273 11.0049V9.7373H4.02753C3.68065 10.4228 3.5 11.1793 3.5 11.9465C3.5 12.7136 3.68065 13.4702 4.02753 14.1556L5.67273 12.8881Z" fill="#FBBC04"/>
<path d="M8.454 8.97414C9.16051 8.96268 9.84318 9.22777 10.3545 9.71212L11.7685 8.30791C10.8718 7.47158 9.68402 7.01242 8.454 7.02669C7.53569 7.02673 6.63548 7.28024 5.85384 7.75891C5.07221 8.23757 4.43993 8.92257 4.02759 9.73741L5.67278 11.005C6.06499 9.83922 7.16178 8.97414 8.454 8.97414Z" fill="#EA4335"/>
</svg>
