<svg width="37" height="24" viewBox="0 0 37 24" fill="none" xmlns="http://www.w3.org/2000/svg">
<path d="M22.256 4.89548L14.5092 4.92212L14.744 19.1045L22.4907 19.0779L22.256 4.89548Z" fill="#FF5F00"/>
<path d="M15.0191 12.0419C14.9712 9.1573 16.2633 6.59424 18.2873 4.93171C16.7596 3.73288 14.8443 3.01197 12.7681 3.01909C7.84942 3.03593 3.93711 7.08797 4.02006 12.0796C4.10301 17.0711 8.14954 21.0959 13.0682 21.0791C15.1444 21.072 17.0355 20.338 18.5233 19.1289C16.4447 17.5055 15.067 14.9265 15.0191 12.0419Z" fill="#EB001B"/>
<path d="M32.9799 11.9202C33.0629 16.9118 29.1505 20.9638 24.2319 20.9806C22.1556 20.9878 20.2403 20.2669 18.7126 19.068C20.7613 17.4054 22.0288 14.8424 21.9809 11.9578C21.9329 9.07327 20.5557 6.51934 18.4767 4.87087C19.9644 3.66171 21.8555 2.92777 23.9317 2.92066C28.8504 2.90381 32.8974 6.95368 32.9799 11.9202Z" fill="#F79E1B"/>
</svg>
