<svg width="37" height="24" viewBox="0 0 37 24" fill="none" xmlns="http://www.w3.org/2000/svg">
<path d="M8.57812 8.63807C8.20209 8.37956 7.71141 8.25 7.10608 8.25H4.76255C4.57698 8.25 4.47445 8.34281 4.45498 8.52824L3.50299 14.5041C3.49309 14.5628 3.50778 14.6165 3.54691 14.6653C3.58581 14.7142 3.63475 14.7385 3.69335 14.7385H4.80651C5.00175 14.7385 5.10907 14.6459 5.12877 14.4603L5.39237 12.8492C5.402 12.7711 5.43634 12.7076 5.49494 12.6587C5.5535 12.6099 5.62674 12.578 5.71463 12.5634C5.80251 12.5489 5.88538 12.5416 5.96364 12.5416C6.04167 12.5416 6.13439 12.5465 6.24197 12.5562C6.34929 12.566 6.41769 12.5707 6.44702 12.5707C7.28673 12.5707 7.94583 12.3341 8.42438 11.8604C8.9027 11.3869 9.14213 10.7303 9.14213 9.89032C9.14213 9.31422 8.95396 8.89683 8.57812 8.63793V8.63807ZM7.36982 10.4324C7.32084 10.7743 7.19405 10.9987 6.989 11.1062C6.78391 11.2138 6.49098 11.2673 6.11021 11.2673L5.62683 11.2819L5.87589 9.71465C5.89532 9.60733 5.95876 9.55361 6.06625 9.55361H6.34463C6.73502 9.55361 7.01837 9.60988 7.19414 9.72199C7.36982 9.83436 7.42842 10.0712 7.36982 10.4324Z" fill="#003087"/>
<path d="M33.3094 8.25H32.2257C32.118 8.25 32.0546 8.30372 32.0352 8.41122L31.0832 14.5044L31.0685 14.5337C31.0685 14.5827 31.088 14.6289 31.1272 14.6729C31.166 14.7167 31.2151 14.7387 31.2736 14.7387H32.2404C32.4256 14.7387 32.5282 14.6461 32.548 14.4605L33.5 8.46982V8.45527C33.5 8.3185 33.4363 8.25018 33.3094 8.25018V8.25Z" fill="#009CDE"/>
<path d="M20.2152 10.6084C20.2152 10.5597 20.1955 10.5132 20.1567 10.4694C20.1176 10.4254 20.0736 10.4033 20.0249 10.4033H18.8971C18.7894 10.4033 18.7016 10.4524 18.6333 10.5498L17.0808 12.8348L16.4363 10.6377C16.3873 10.4816 16.28 10.4033 16.1141 10.4033H15.0154C14.9665 10.4033 14.9226 10.4253 14.8837 10.4694C14.8446 10.5132 14.8251 10.5597 14.8251 10.6084C14.8251 10.628 14.9204 10.916 15.1107 11.4726C15.3011 12.0293 15.5061 12.6299 15.7259 13.2744C15.9456 13.9187 16.0603 14.2607 16.0701 14.2994C15.2693 15.3932 14.8691 15.9791 14.8691 16.0571C14.8691 16.1841 14.9324 16.2475 15.0595 16.2475H16.1873C16.2947 16.2475 16.3825 16.1988 16.451 16.1011L20.1861 10.7108C20.2054 10.6915 20.2152 10.6575 20.2152 10.6083V10.6084Z" fill="#003087"/>
<path d="M30.7172 10.4033H29.604C29.4671 10.4033 29.3844 10.5645 29.3551 10.8868C29.1009 10.4963 28.6374 10.3008 27.9635 10.3008C27.2605 10.3008 26.6623 10.5645 26.1693 11.0918C25.6761 11.6191 25.4297 12.2393 25.4297 12.9521C25.4297 13.5283 25.5981 13.9872 25.9349 14.3288C26.2718 14.6708 26.7233 14.8415 27.2899 14.8415C27.573 14.8415 27.8611 14.7828 28.154 14.6657C28.4469 14.5486 28.6762 14.3924 28.8425 14.197C28.8425 14.2068 28.8325 14.2506 28.8132 14.3287C28.7935 14.407 28.7839 14.4657 28.7839 14.5045C28.7839 14.6609 28.8472 14.7388 28.9743 14.7388H29.985C30.1703 14.7388 30.2779 14.6462 30.3071 14.4605L30.9077 10.6376C30.9173 10.579 30.9027 10.5254 30.8637 10.4765C30.8245 10.4278 30.7757 10.4033 30.7172 10.4033ZM28.8058 13.2889C28.5568 13.533 28.2565 13.655 27.905 13.655C27.6217 13.655 27.3924 13.5771 27.2166 13.4207C27.0407 13.2648 26.9528 13.05 26.9528 12.7763C26.9528 12.4152 27.0749 12.1098 27.3191 11.8608C27.5629 11.6118 27.8659 11.4874 28.2272 11.4874C28.5004 11.4874 28.7275 11.5679 28.9083 11.7289C29.0887 11.8901 29.1794 12.1123 29.1794 12.3955C29.1793 12.747 29.0548 13.0449 28.8058 13.2889Z" fill="#009CDE"/>
<path d="M14.0781 10.4033H12.9649C12.828 10.4033 12.7451 10.5645 12.7158 10.8868C12.4522 10.4963 11.9883 10.3008 11.3243 10.3008C10.6213 10.3008 10.0231 10.5645 9.53005 11.0918C9.03686 11.6191 8.79041 12.2393 8.79041 12.9521C8.79041 13.5283 8.95887 13.9872 9.29577 14.3288C9.63266 14.6708 10.0842 14.8415 10.6506 14.8415C10.9239 14.8415 11.2072 14.7828 11.5001 14.6657C11.793 14.5486 12.0274 14.3924 12.2032 14.197C12.164 14.3141 12.1446 14.4167 12.1446 14.5045C12.1446 14.6609 12.208 14.7388 12.335 14.7388H13.3456C13.531 14.7388 13.6385 14.6462 13.6678 14.4605L14.2683 10.6376C14.278 10.579 14.2634 10.5254 14.2244 10.4765C14.1853 10.4278 14.1366 10.4033 14.0781 10.4033ZM12.1666 13.2962C11.9176 13.5357 11.6123 13.655 11.2512 13.655C10.9679 13.655 10.7408 13.5771 10.5701 13.4207C10.3991 13.2648 10.3137 13.05 10.3137 12.7763C10.3137 12.4152 10.4357 12.1098 10.68 11.8608C10.9239 11.6118 11.2266 11.4873 11.5881 11.4873C11.8613 11.4873 12.0884 11.5679 12.2692 11.7289C12.4497 11.8901 12.5401 12.1123 12.5401 12.3955C12.5401 12.7568 12.4156 13.0572 12.1666 13.2962Z" fill="#003087"/>
<path d="M25.2172 8.63807C24.8412 8.37956 24.3507 8.25 23.7452 8.25H21.4163C21.221 8.25 21.1135 8.34281 21.0941 8.52824L20.142 14.5041C20.1321 14.5628 20.1468 14.6165 20.186 14.6653C20.2247 14.7142 20.2738 14.7385 20.3324 14.7385H21.5334C21.6505 14.7385 21.7286 14.6751 21.7678 14.5481L22.0314 12.8492C22.0412 12.7711 22.0753 12.7076 22.134 12.6587C22.1926 12.6099 22.2658 12.578 22.3537 12.5634C22.4415 12.5489 22.5244 12.5416 22.6027 12.5416C22.6808 12.5416 22.7735 12.5465 22.881 12.5562C22.9883 12.566 23.0569 12.5707 23.086 12.5707C23.9259 12.5707 24.5849 12.3341 25.0634 11.8604C25.5419 11.3869 25.7811 10.7303 25.7811 9.89032C25.7811 9.31422 25.5931 8.89679 25.2172 8.63793V8.63807ZM23.716 11.0475C23.5011 11.194 23.1788 11.2672 22.7493 11.2672L22.2805 11.2819L22.5295 9.71456C22.5489 9.60729 22.6123 9.55347 22.7199 9.55347H22.9834C23.1983 9.55347 23.3691 9.56328 23.4963 9.58275C23.623 9.60236 23.7452 9.6633 23.8624 9.76577C23.9797 9.86834 24.0382 10.0173 24.0382 10.2125C24.0382 10.6228 23.9306 10.901 23.716 11.0475Z" fill="#009CDE"/>
</svg>
