<svg width="37" height="24" viewBox="0 0 37 24" fill="none" xmlns="http://www.w3.org/2000/svg">
<path d="M31.4824 7.52612H29.5964C29.0263 7.52612 28.5877 7.70156 28.3245 8.27174L24.728 16.4735H27.2719C27.2719 16.4735 27.7105 15.377 27.7982 15.1138C28.0614 15.1138 30.5614 15.1138 30.9122 15.1138C31 15.4209 31.2193 16.4296 31.2193 16.4296H33.5L31.4824 7.52612ZM28.5 13.2717C28.7193 12.7454 29.4649 10.7717 29.4649 10.7717C29.4649 10.8156 29.6842 10.2454 29.7719 9.9384L29.9473 10.7279C29.9473 10.7279 30.4298 12.877 30.5175 13.3156H28.5V13.2717Z" fill="#3362AB"/>
<path d="M24.9035 13.5351C24.9035 15.3772 23.2368 16.6053 20.6491 16.6053C19.5526 16.6053 18.5 16.386 17.9298 16.1228L18.2807 14.1053L18.5877 14.2369C19.3772 14.5878 19.9035 14.7193 20.8684 14.7193C21.5702 14.7193 22.3158 14.4562 22.3158 13.8421C22.3158 13.4474 22.0088 13.1842 21.0438 12.7457C20.1228 12.3071 18.8947 11.6053 18.8947 10.3334C18.8947 8.57899 20.6052 7.39478 23.0175 7.39478C23.9386 7.39478 24.7281 7.57021 25.2105 7.78951L24.8596 9.71934L24.6842 9.5439C24.2456 9.36846 23.6754 9.19302 22.8421 9.19302C21.921 9.23688 21.4824 9.63162 21.4824 9.98249C21.4824 10.3772 22.0088 10.6842 22.8421 11.079C24.2456 11.7369 24.9035 12.4825 24.9035 13.5351Z" fill="#3362AB"/>
<path d="M3.5 7.61416L3.54386 7.43872H7.31579C7.84211 7.43872 8.23684 7.61416 8.36842 8.18433L9.20175 12.1317C8.36842 10.0264 6.4386 8.31591 3.5 7.61416Z" fill="#F9B50B"/>
<path d="M14.5088 7.52628L10.6931 16.4298H8.10534L5.91235 8.97365C7.4913 9.98242 8.80709 11.5614 9.28955 12.6579L9.5527 13.5789L11.9211 7.48242H14.5088V7.52628Z" fill="#3362AB"/>
<path d="M15.5175 7.48242H17.9298L16.3947 16.4298H13.9824L15.5175 7.48242Z" fill="#3362AB"/>
</svg>
