<svg width="520" height="188" viewBox="0 0 520 188" fill="none" xmlns="http://www.w3.org/2000/svg">
<path d="M53.214 82.4659H30.6983V51.0397C30.6983 41.9016 30.4488 36.2181 29.9496 33.9893C29.4861 31.6862 28.4343 30.5347 26.7942 30.5347C24.9402 30.5347 23.7636 31.9091 23.2644 34.658C22.7653 37.4068 22.5157 43.3503 22.5157 52.4884V136.292C22.5157 145.058 22.7653 150.779 23.2644 153.453C23.7636 156.128 24.8867 157.465 26.6338 157.465C28.3095 157.465 29.397 156.128 29.8961 153.453C30.4309 150.779 30.6983 144.501 30.6983 134.62V111.998H53.214V119.018C53.214 137.666 52.5722 150.89 51.2887 158.691C50.0408 166.492 47.2419 173.327 42.8921 179.196C38.5779 185.065 33.2476 188 26.9012 188C20.3051 188 14.8678 185.511 10.5893 180.533C6.31081 175.556 3.47629 168.684 2.08578 159.917C0.695259 151.076 0 137.815 0 120.133V67.4215C0 54.4201 0.213926 44.6876 0.641777 38.2241C1.06963 31.6862 2.33536 25.4084 4.43896 19.3906C6.57822 13.3729 9.5197 8.65521 13.2634 5.2377C17.0427 1.7459 21.3747 0 26.2594 0C32.8911 0 38.364 2.67457 42.6782 8.02371C46.9923 13.3729 49.8269 20.0593 51.1817 28.083C52.5366 36.0324 53.214 48.4394 53.214 65.3041V82.4659Z" fill="#FDFDFD"/>
<path d="M112.739 109.434C112.739 127.562 112.525 140.415 112.097 147.993C111.705 155.497 110.421 162.369 108.246 168.609C106.107 174.85 103.201 179.642 99.5289 182.985C95.8566 186.328 91.578 188 86.6934 188C82.0583 188 77.8868 186.44 74.1787 183.32C70.5064 180.125 67.5471 175.37 65.3008 169.055C63.0546 162.74 61.7176 155.868 61.2897 148.439C60.8619 141.009 60.6479 128.008 60.6479 109.434V78.5655C60.6479 60.4379 60.844 47.6222 61.2362 40.1186C61.6641 32.5406 62.9476 25.6313 65.0869 19.3906C67.2618 13.15 70.1855 8.35803 73.8579 5.01482C77.5302 1.67161 81.8088 0 86.6934 0C91.3285 0 95.4822 1.59731 99.1546 4.79194C102.863 7.91227 105.84 12.6299 108.086 18.9449C110.332 25.2598 111.669 32.132 112.097 39.5614C112.525 46.9907 112.739 59.9921 112.739 78.5655V109.434ZM90.2232 50.1482C90.2232 41.753 89.9914 36.4039 89.5279 34.1008C89.1001 31.7234 88.1909 30.5347 86.8004 30.5347C85.6238 30.5347 84.7146 31.5005 84.0728 33.4321C83.4667 35.2895 83.1636 40.8615 83.1636 50.1482V134.397C83.1636 144.873 83.3597 151.336 83.7519 153.788C84.1798 156.239 85.1424 157.465 86.6399 157.465C88.173 157.465 89.1535 156.054 89.5814 153.231C90.0092 150.407 90.2232 143.684 90.2232 133.06V50.1482Z" fill="#FDFDFD"/>
<path d="M143.705 3.78897V148.104H157.396V184.211H121.189V3.78897H143.705Z" fill="#FDFDFD"/>
<path d="M162.904 3.78897H200.448V39.8957H185.42V74.1079H199.486V108.432H185.42V148.104H201.946V184.211H162.904V3.78897Z" fill="#FDFDFD"/>
<path d="M261.043 82.4659H238.527V51.0397C238.527 41.9016 238.278 36.2181 237.778 33.9893C237.315 31.6862 236.263 30.5347 234.623 30.5347C232.769 30.5347 231.592 31.9091 231.093 34.658C230.594 37.4068 230.345 43.3503 230.345 52.4884V136.292C230.345 145.058 230.594 150.779 231.093 153.453C231.592 156.128 232.716 157.465 234.463 157.465C236.138 157.465 237.226 156.128 237.725 153.453C238.26 150.779 238.527 144.501 238.527 134.62V111.998H261.043V119.018C261.043 137.666 260.401 150.89 259.118 158.691C257.87 166.492 255.071 173.327 250.721 179.196C246.407 185.065 241.076 188 234.73 188C228.134 188 222.697 185.511 218.418 180.533C214.14 175.556 211.305 168.684 209.915 159.917C208.524 151.076 207.829 137.815 207.829 120.133V67.4215C207.829 54.4201 208.043 44.6876 208.471 38.2241C208.898 31.6862 210.164 25.4084 212.268 19.3906C214.407 13.3729 217.349 8.65521 221.092 5.2377C224.872 1.7459 229.204 0 234.088 0C240.72 0 246.193 2.67457 250.507 8.02371C254.821 13.3729 257.656 20.0593 259.011 28.083C260.365 36.0324 261.043 48.4394 261.043 65.3041V82.4659Z" fill="#FDFDFD"/>
<path d="M314.471 3.78897V39.8957H301.1V184.211H278.585V39.8957H265.268V3.78897H314.471Z" fill="#FDFDFD"/>
<path d="M342.121 3.78897V184.211H319.605V3.78897H342.121Z" fill="#FDFDFD"/>
<path d="M402.608 109.434C402.608 127.562 402.394 140.415 401.966 147.993C401.574 155.497 400.291 162.369 398.116 168.609C395.977 174.85 393.071 179.642 389.398 182.985C385.726 186.328 381.447 188 376.563 188C371.928 188 367.756 186.44 364.048 183.32C360.376 180.125 357.416 175.37 355.17 169.055C352.924 162.74 351.587 155.868 351.159 148.439C350.731 141.009 350.517 128.008 350.517 109.434V78.5655C350.517 60.4379 350.713 47.6222 351.106 40.1186C351.533 32.5406 352.817 25.6313 354.956 19.3906C357.131 13.15 360.055 8.35803 363.727 5.01482C367.4 1.67161 371.678 0 376.563 0C381.198 0 385.352 1.59731 389.024 4.79194C392.732 7.91227 395.709 12.6299 397.955 18.9449C400.202 25.2598 401.539 32.132 401.966 39.5614C402.394 46.9907 402.608 59.9921 402.608 78.5655V109.434ZM380.093 50.1482C380.093 41.753 379.861 36.4039 379.397 34.1008C378.969 31.7234 378.06 30.5347 376.67 30.5347C375.493 30.5347 374.584 31.5005 373.942 33.4321C373.336 35.2895 373.033 40.8615 373.033 50.1482V134.397C373.033 144.873 373.229 151.336 373.621 153.788C374.049 156.239 375.012 157.465 376.509 157.465C378.042 157.465 379.023 156.054 379.451 153.231C379.879 150.407 380.093 143.684 380.093 133.06V50.1482Z" fill="#FDFDFD"/>
<path d="M461.331 3.78897V184.211H441.596L429.884 102.191V184.211H411.058V3.78897H429.884L442.505 85.029V3.78897H461.331Z" fill="#FDFDFD"/>
<path d="M518.128 58.3948H497.217V45.0219C497.217 38.7813 496.949 34.8066 496.415 33.0978C495.88 31.3891 494.988 30.5347 493.741 30.5347C492.386 30.5347 491.352 31.6862 490.639 33.9893C489.961 36.2924 489.622 39.7842 489.622 44.4647C489.622 50.4825 490.015 55.0144 490.799 58.0605C491.548 61.1065 493.669 64.784 497.163 69.0931C507.182 81.5001 513.493 91.6783 516.096 99.6277C518.699 107.577 520 120.393 520 138.075C520 150.927 519.269 160.4 517.807 166.492C516.381 172.584 513.6 177.71 509.464 181.871C505.328 185.957 500.515 188 495.024 188C488.999 188 483.846 185.623 479.568 180.868C475.325 176.113 472.544 170.058 471.225 162.703C469.906 155.348 469.246 144.91 469.246 131.388V119.576H490.157V141.529C490.157 148.29 490.443 152.636 491.013 154.568C491.619 156.5 492.671 157.465 494.168 157.465C495.666 157.465 496.771 156.239 497.484 153.788C498.233 151.336 498.607 147.696 498.607 142.867C498.607 132.243 497.912 125.296 496.522 122.027C495.095 118.758 491.584 113.298 485.986 105.646C480.388 97.919 476.68 92.3098 474.862 88.818C473.043 85.3262 471.528 80.4971 470.316 74.3308C469.139 68.1644 468.551 60.2893 468.551 50.7054C468.551 36.8868 469.389 26.7829 471.064 20.3936C472.776 14.0043 475.521 9.02667 479.301 5.46058C483.08 1.82019 487.644 0 492.992 0C498.839 0 503.813 1.96878 507.913 5.90634C512.049 9.8439 514.777 14.8216 516.096 20.8394C517.451 26.7829 518.128 36.9239 518.128 51.2626V58.3948Z" fill="#FDFDFD"/>
</svg>
