<svg width="89" height="24" viewBox="0 0 89 24" fill="none" xmlns="http://www.w3.org/2000/svg">
<path d="M11.153 8.30819H6.51401V3.71767C6.51401 3.34052 6.28233 3.15194 5.81897 3.15194C5.33405 3.15194 5.0916 3.34052 5.0916 3.71767V19.8006C5.0916 20.1778 5.33405 20.3664 5.81897 20.3664C6.28233 20.3664 6.51401 20.1778 6.51401 19.8006V14.0787H11.153V19.9623C11.153 21.0614 10.6142 21.945 9.53664 22.6131C8.45905 23.2705 7.24138 23.5991 5.88362 23.5991C1.96121 23.5991 0 22.2091 0 19.4289V4.5097C0 1.50323 1.96121 0 5.88362 0C9.39655 0 11.153 1.36853 11.153 4.1056V8.30819Z" fill="#141414"/>
<path d="M12.236 0.210129H17.3276V19.6713C17.3276 20.1347 17.6131 20.3664 18.1843 20.3664C18.7446 20.3664 19.0248 20.1347 19.0248 19.6713V0.210129H24.1164V19.3966C24.1164 20.7328 23.5614 21.7672 22.4515 22.5C21.3416 23.2328 19.9192 23.5991 18.1843 23.5991C16.5787 23.5991 15.1832 23.2705 13.9978 22.6131C12.8233 21.9558 12.236 20.8944 12.236 19.4289V0.210129Z" fill="#141414"/>
<path d="M34.833 23.389H25.2802V0.210129H30.3718V20.4149H34.833V23.389Z" fill="#141414"/>
<path d="M46.2608 3.23276H43.416V23.389H38.3244V3.23276H35.4795V0.210129H46.2608V3.23276Z" fill="#141414"/>
<path d="M47.2144 0.210129H52.306V19.6713C52.306 20.1347 52.5916 20.3664 53.1627 20.3664C53.7231 20.3664 54.0032 20.1347 54.0032 19.6713V0.210129H59.0948V19.3966C59.0948 20.7328 58.5399 21.7672 57.43 22.5C56.32 23.2328 54.8976 23.5991 53.1627 23.5991C51.5571 23.5991 50.1616 23.2705 48.9763 22.6131C47.8017 21.9558 47.2144 20.8944 47.2144 19.4289V0.210129Z" fill="#141414"/>
<path d="M72.7856 23.4213H67.694C67.1444 22.764 66.8696 20.8998 66.8696 17.8287V17.7963L66.9019 16.4062C66.9343 14.4774 66.9504 13.4914 66.9504 13.4483C66.9504 12.6616 66.4224 12.2683 65.3664 12.2683V23.389H60.2748V0.210129H66.5625C67.9957 0.210129 69.2403 0.538793 70.2963 1.19612C71.3632 1.85345 71.8966 2.89332 71.8966 4.31573V7.09591C71.8966 8.89547 70.8459 10.1131 68.7446 10.7489C70.8567 11.2446 71.9127 12.5216 71.9127 14.5797L71.8319 17.1175C71.8319 20.8244 72.1498 22.9256 72.7856 23.4213ZM66.9504 8.22737V4.41272C66.9504 3.60453 66.4224 3.20043 65.3664 3.20043V9.45582C66.4224 9.45582 66.9504 9.04634 66.9504 8.22737Z" fill="#141414"/>
<path d="M83.4537 23.389H73.4968V0.210129H83.389V3.20043H78.5884V9.45582H82.9203V12.2683H78.5884V20.4149H83.4537V23.389Z" fill="#141414"/>
<path d="M88.3836 23.389H84.181V20.0108H88.3836V23.389Z" fill="#141414"/>
</svg>
